<?xml version="1.0" encoding="utf-8"?>
<?xml-stylesheet type="text/xsl" href="rss1.xsl"?>
<rss version="2.0" xmlns:atom="http://www.w3.org/2005/Atom" xmlns:content="http://purl.org/rss/1.0/modules/content/" xmlns:dc="http://purl.org/dc/elements/1.1/" xmlns:media="http://search.yahoo.com/mrss/">
<channel>
 <title>Getty</title>
 <link>http://www.gettyimg.com/</link>
 <atom:link href="http://www.gettyimg.com/" rel="self" type="application/rss+xml" />

 
                <item>
                <title><![CDATA[【Cinema Center】MOVIE - Prom.Pact.2023.1080p.DSNP.WEB-DL.DDP5.1.H.264-Samuel]]></title>
                <link><![CDATA[https://sharemania.us/threads/prom-pact-2023-1080p-dsnp-web-dl-ddp5-1-h-264-samuel.224628/]]></link>
                <description><![CDATA[<article>
<blockquote class="messageText SelectQuoteContainer ugc baseHtml">
<div style="text-align: center"><b><span style="font-size: 26px">Prom Pact</span></b><br>
<img src="https://i.imgur.com/PnXwVLj.jpg" class="bbCodeImage LbImage" alt="[​IMG]" data-url="https://i.imgur.com/PnXwVLj.jpg" style=""><br>
<b><a href="https://i.imgur.com/HPGR3cw.jpg" target="_blank" class="externalLink" rel="nofollow">Alternate Artwork 1</a></b> | <b><a href="https://i.imgur.com/Lu10atF.jpg" target="_blank" class="externalLink" rel="nofollow">Alternate Artwork 2</a></b> | <b><a href="https://i.imgur.com/E7eVbv4.jpg" target="_blank" class="externalLink" rel="nofollow">Alternate Artwork 3</a></b> | <b><a href="https://i.imgur.com/mypAgK8.jpg" target="_blank" class="externalLink" rel="nofollow">Alternate Artwork 4</a></b> | <b><a href="https://i.imgur.com/rBUaUtQ.jpg" target="_blank" class="externalLink" rel="nofollow">Poster</a></b><br>
<br>
<img src="https://i.imgur.com/brpsEJ3.png" class="bbCodeImage LbImage" alt="[​IMG]" data-url="https://i.imgur.com/brpsEJ3.png" style=""> <img src="https://i.imgur.com/R7cyABL.png" class="bbCodeImage LbImage" alt="[​IMG]" data-url="https://i.imgur.com/R7cyABL.png" style=""> <img src="https://i.imgur.com/aNwcs8B.png" class="bbCodeImage LbImage" alt="[​IMG]" data-url="https://i.imgur.com/aNwcs8B.png" style=""><br>
2023 • 1h 39m<br>
Romance, Romantic Comedy, Coming of Age, Comedy<br>
<br>
<div class="bbCodeBlock bbCodeQuote">
<aside>
<blockquote class="quoteContainer"><div class="quote"><b><span style="font-size: 15px"><span style="font-family: 'Arial'">Description</span></span></b><br>
It's prom season, and high school senior Mandy and her best friend and fellow outsider Ben are surrounded by over-the-top "promposals." Mandy is only focused on getting into her dream school Harvard, but as she starts tutoring basketball all-star Graham, she must re-evaluate whether her dream school is worth the cost of everything she believes in.</div><div class="quoteExpand">Click to expand...</div></blockquote>
</aside>
</div>
<div class="bbCodeBlock bbCodeQuote">
<aside>
<blockquote class="quoteContainer"><div class="quote"><b><span style="font-size: 15px"><span style="font-family: 'Arial'">Trailers</span></span></b><br>
<div data-s9e-mediaembed="googledrive" style="display:inline-block;width:100%;max-width:640px"><div style="overflow:hidden;position:relative;padding-bottom:75%"><iframe allowfullscreen="" scrolling="no" src="//drive.google.com/file/d/1KiEZswTyvUY4GvEk3n0QyUWpCr3EarDS/preview" style="border:0;height:100%;left:0;position:absolute;width:100%"></iframe></div></div></div><div class="quoteExpand quoteCut">Click to expand...</div></blockquote>
</aside>
</div>
<div class="bbCodeBlock bbCodeQuote">
<aside>
<blockquote class="quoteContainer"><div class="quote"><b><span style="font-size: 15px"><span style="font-family: 'Arial'">More Information</span></span></b><br>
<b>Long Description:</b><br>
It's the height of prom season, and high school senior Mandy Yang and her best friend and fellow outsider Ben are surrounded by over-the-top '80s-themed "promposals." However, Mandy keeps her eyes focused on a different goal: her lifelong dream of attending Harvard. When she finds out her acceptance has been deferred, she is determined to do whatever she can do to get herself off the waitlist, even if that means asking for help from the one person she abhors – popular basketball all-star Graham Lansing, whose father is a powerful senator and Harvard alum. Once Mandy becomes Graham's tutor, she begins to realize there's more to him than she thought and perhaps something more to life than Harvard.<br>
<b>Duration:</b> 1h 39m<br>
<b>Release Date:</b> 2023<br>
<b>Genre:</b> Romance, Romantic Comedy, Coming of Age, Comedy<br>
<b>Rating:</b> <img src="https://i.imgur.com/brpsEJ3.png" class="bbCodeImage LbImage" alt="[​IMG]" data-url="https://i.imgur.com/brpsEJ3.png" style=""><br>
<b>Director:</b> Anya Adams<br>
<b>Starring:</b> Peyton Elizabeth Lee, Milo Manheim, Blake Draper, Monique Green, Arica Himmel, Jason Sakaki</div><div class="quoteExpand quoteCut">Click to expand...</div></blockquote>
</aside>
</div>
<div class="bbCodeBlock bbCodeQuote">
<aside>
<blockquote class="quoteContainer"><div class="quote"><b><span style="font-size: 15px">Source</span></b><br>
<img src="https://i.imgur.com/zIQLtMk.png" class="bbCodeImage LbImage" alt="[​IMG]" data-url="https://i.imgur.com/zIQLtMk.png" style=""></div><div class="quoteExpand">Click to expand...</div></blockquote>
</aside>
</div>
<div class="bbCodeBlock bbCodeQuote">
<aside>
<blockquote class="quoteContainer"><div class="quote"><b><span style="font-size: 15px">Release Name</span></b><br>
Prom.Pact.2023.1080p.DSNP.WEB-DL.DDP5.1.H.264-Samuel</div><div class="quoteExpand">Click to expand...</div></blockquote>
</aside>
</div>
<div class="ToggleTriggerAnchor bbCodeSpoilerContainer">
<button type="button" class="button bbCodeSpoilerButton ToggleTrigger Tooltip JsOnly" data-target="> .SpoilerTarget"><span>Spoiler: <span class="SpoilerTitle">Media Information</span></span></button>
<div class="SpoilerTarget bbCodeSpoilerText">General<br>
Complete name : Prom.Pact.2023.1080p.DSNP.WEB-DL.DDP5.1.H.264-Samuel.mkv<br>
Format : Matroska<br>
Format version : Version 4<br>
File size : 5.98 GiB<br>
Duration : 1 h 38 min<br>
Overall bit rate mode : Variable<br>
Overall bit rate : 8 693 kb/s<br>
Frame rate : 23.976 FPS<br>
Encoded date : 2023-07-16 12:03:56 UTC<br>
Writing application : mkvmerge v78.0 ('Running') 64-bit<br>
Writing library : libebml v1.4.4 + libmatroska v1.7.1<br>
<br>
Video<br>
ID : 1<br>
Format : AVC<br>
Format/Info : Advanced Video Codec<br>
Format profile : High@L4<br>
Format settings : CABAC / 4 Ref Frames<br>
Format settings, CABAC : Yes<br>
Format settings, Reference frames : 4 frames<br>
Codec ID : V_MPEG4/ISO/AVC<br>
Duration : 1 h 38 min<br>
Bit rate mode : Variable<br>
Bit rate : 6 255 kb/s<br>
Maximum bit rate : 12.7 Mb/s<br>
Width : 1 920 pixels<br>
Height : 1 080 pixels<br>
Display aspect ratio : 16:9<br>
Frame rate mode : Constant<br>
Frame rate : 23.976 (24000/1001) FPS<br>
Color space : YUV<br>
Chroma subsampling : 4:2:0<br>
Bit depth : 8 bits<br>
Scan type : Progressive<br>
Bits/(Pixel*Frame) : 0.126<br>
Stream size : 4.30 GiB (72%)<br>
Language : English<br>
Default : Yes<br>
Forced : No<br>
Color range : Limited<br>
Color primaries : BT.709<br>
Transfer characteristics : BT.709<br>
Matrix coefficients : BT.709<br>
<br>
Audio #1<br>
ID : 2<br>
Format : E-AC-3<br>
Format/Info : Enhanced AC-3<br>
Commercial name : Dolby Digital Plus<br>
Codec ID : A_EAC3<br>
Duration : 1 h 38 min<br>
Bit rate mode : Constant<br>
Bit rate : 256 kb/s<br>
Channel(s) : 6 channels<br>
Channel layout : L R C LFE Ls Rs<br>
Sampling rate : 48.0 kHz<br>
Frame rate : 31.250 FPS (1536 SPF)<br>
Compression mode : Lossy<br>
Stream size : 180 MiB (3%)<br>
Language : English<br>
Service kind : Complete Main<br>
Default : Yes<br>
Forced : No<br>
<br>
Audio #2<br>
ID : 3<br>
Format : AAC LC<br>
Format/Info : Advanced Audio Codec Low Complexity<br>
Codec ID : A_AAC-2<br>
Duration : 1 h 38 min<br>
Bit rate : 125 kb/s<br>
Channel(s) : 2 channels<br>
Channel layout : L R<br>
Sampling rate : 48.0 kHz<br>
Frame rate : 46.875 FPS (1024 SPF)<br>
Compression mode : Lossy<br>
Stream size : 88.2 MiB (1%)<br>
Title : Audio Description<br>
Language : English<br>
Default : No<br>
Forced : No<br>
<br>
Audio #3<br>
ID : 4<br>
Format : E-AC-3<br>
Format/Info : Enhanced AC-3<br>
Commercial name : Dolby Digital Plus<br>
Codec ID : A_EAC3<br>
Duration : 1 h 38 min<br>
Bit rate mode : Constant<br>
Bit rate : 256 kb/s<br>
Channel(s) : 6 channels<br>
Channel layout : L R C LFE Ls Rs<br>
Sampling rate : 48.0 kHz<br>
Frame rate : 31.250 FPS (1536 SPF)<br>
Compression mode : Lossy<br>
Stream size : 180 MiB (3%)<br>
Language : German<br>
Service kind : Complete Main<br>
Default : No<br>
Forced : No<br>
<br>
Audio #4<br>
ID : 5<br>
Format : E-AC-3<br>
Format/Info : Enhanced AC-3<br>
Commercial name : Dolby Digital Plus<br>
Codec ID : A_EAC3<br>
Duration : 1 h 38 min<br>
Bit rate mode : Constant<br>
Bit rate : 256 kb/s<br>
Channel(s) : 6 channels<br>
Channel layout : L R C LFE Ls Rs<br>
Sampling rate : 48.0 kHz<br>
Frame rate : 31.250 FPS (1536 SPF)<br>
Compression mode : Lossy<br>
Stream size : 180 MiB (3%)<br>
Title : Latin American<br>
Language : Spanish (Latin America)<br>
Service kind : Complete Main<br>
Default : No<br>
Forced : No<br>
<br>
Audio #5<br>
ID : 6<br>
Format : E-AC-3<br>
Format/Info : Enhanced AC-3<br>
Commercial name : Dolby Digital Plus<br>
Codec ID : A_EAC3<br>
Duration : 1 h 38 min<br>
Bit rate mode : Constant<br>
Bit rate : 256 kb/s<br>
Channel(s) : 6 channels<br>
Channel layout : L R C LFE Ls Rs<br>
Sampling rate : 48.0 kHz<br>
Frame rate : 31.250 FPS (1536 SPF)<br>
Compression mode : Lossy<br>
Stream size : 180 MiB (3%)<br>
Title : European<br>
Language : Spanish (ES)<br>
Service kind : Complete Main<br>
Default : No<br>
Forced : No<br>
<br>
Audio #6<br>
ID : 7<br>
Format : E-AC-3<br>
Format/Info : Enhanced AC-3<br>
Commercial name : Dolby Digital Plus<br>
Codec ID : A_EAC3<br>
Duration : 1 h 38 min<br>
Bit rate mode : Constant<br>
Bit rate : 256 kb/s<br>
Channel(s) : 6 channels<br>
Channel layout : L R C LFE Ls Rs<br>
Sampling rate : 48.0 kHz<br>
Frame rate : 31.250 FPS (1536 SPF)<br>
Compression mode : Lossy<br>
Stream size : 180 MiB (3%)<br>
Language : French (FR)<br>
Service kind : Complete Main<br>
Default : No<br>
Forced : No<br>
<br>
Audio #7<br>
ID : 8<br>
Format : E-AC-3<br>
Format/Info : Enhanced AC-3<br>
Commercial name : Dolby Digital Plus<br>
Codec ID : A_EAC3<br>
Duration : 1 h 38 min<br>
Bit rate mode : Constant<br>
Bit rate : 256 kb/s<br>
Channel(s) : 6 channels<br>
Channel layout : L R C LFE Ls Rs<br>
Sampling rate : 48.0 kHz<br>
Frame rate : 31.250 FPS (1536 SPF)<br>
Compression mode : Lossy<br>
Stream size : 180 MiB (3%)<br>
Language : Italian<br>
Service kind : Complete Main<br>
Default : No<br>
Forced : No<br>
<br>
Audio #8<br>
ID : 9<br>
Format : E-AC-3<br>
Format/Info : Enhanced AC-3<br>
Commercial name : Dolby Digital Plus<br>
Codec ID : A_EAC3<br>
Duration : 1 h 38 min<br>
Bit rate mode : Constant<br>
Bit rate : 256 kb/s<br>
Channel(s) : 6 channels<br>
Channel layout : L R C LFE Ls Rs<br>
Sampling rate : 48.0 kHz<br>
Frame rate : 31.250 FPS (1536 SPF)<br>
Compression mode : Lossy<br>
Stream size : 180 MiB (3%)<br>
Language : Polish<br>
Service kind : Complete Main<br>
Default : No<br>
Forced : No<br>
<br>
Audio #9<br>
ID : 10<br>
Format : E-AC-3<br>
Format/Info : Enhanced AC-3<br>
Commercial name : Dolby Digital Plus<br>
Codec ID : A_EAC3<br>
Duration : 1 h 38 min<br>
Bit rate mode : Constant<br>
Bit rate : 256 kb/s<br>
Channel(s) : 6 channels<br>
Channel layout : L R C LFE Ls Rs<br>
Sampling rate : 48.0 kHz<br>
Frame rate : 31.250 FPS (1536 SPF)<br>
Compression mode : Lossy<br>
Stream size : 180 MiB (3%)<br>
Title : Brazilian<br>
Language : Portuguese (BR)<br>
Service kind : Complete Main<br>
Default : No<br>
Forced : No<br>
<br>
Audio #10<br>
ID : 11<br>
Format : E-AC-3<br>
Format/Info : Enhanced AC-3<br>
Commercial name : Dolby Digital Plus<br>
Codec ID : A_EAC3<br>
Duration : 1 h 38 min<br>
Bit rate mode : Constant<br>
Bit rate : 256 kb/s<br>
Channel(s) : 6 channels<br>
Channel layout : L R C LFE Ls Rs<br>
Sampling rate : 48.0 kHz<br>
Frame rate : 31.250 FPS (1536 SPF)<br>
Compression mode : Lossy<br>
Stream size : 180 MiB (3%)<br>
Language : Turkish<br>
Service kind : Complete Main<br>
Default : No<br>
Forced : No<br>
<br>
Text #1<br>
ID : 12<br>
Format : UTF-8<br>
Codec ID : S_TEXT/UTF8<br>
Codec ID/Info : UTF-8 Plain Text<br>
Duration : 1 h 37 min<br>
Bit rate : 83 b/s<br>
Frame rate : 0.290 FPS<br>
Count of elements : 1697<br>
Stream size : 59.4 KiB (0%)<br>
Language : English<br>
Default : No<br>
Forced : No<br>
<br>
Text #2<br>
ID : 13<br>
Format : UTF-8<br>
Codec ID : S_TEXT/UTF8<br>
Codec ID/Info : UTF-8 Plain Text<br>
Duration : 1 h 38 min<br>
Bit rate : 93 b/s<br>
Frame rate : 0.324 FPS<br>
Count of elements : 1908<br>
Stream size : 67.3 KiB (0%)<br>
Title : SDH<br>
Language : English<br>
Default : No<br>
Forced : No<br>
<br>
Text #3<br>
ID : 14<br>
Format : UTF-8<br>
Codec ID : S_TEXT/UTF8<br>
Codec ID/Info : UTF-8 Plain Text<br>
Duration : 1 h 38 min<br>
Bit rate : 77 b/s<br>
Frame rate : 0.260 FPS<br>
Count of elements : 1530<br>
Stream size : 55.4 KiB (0%)<br>
Language : Czech<br>
Default : No<br>
Forced : No<br>
<br>
Text #4<br>
ID : 15<br>
Format : UTF-8<br>
Codec ID : S_TEXT/UTF8<br>
Codec ID/Info : UTF-8 Plain Text<br>
Duration : 1 h 38 min<br>
Bit rate : 71 b/s<br>
Frame rate : 0.267 FPS<br>
Count of elements : 1574<br>
Stream size : 51.5 KiB (0%)<br>
Language : Danish<br>
Default : No<br>
Forced : No<br>
<br>
Text #5<br>
ID : 16<br>
Format : UTF-8<br>
Codec ID : S_TEXT/UTF8<br>
Codec ID/Info : UTF-8 Plain Text<br>
Duration : 1 h 37 min<br>
Bit rate : 0 b/s<br>
Frame rate : 0.003 FPS<br>
Count of elements : 19<br>
Stream size : 645 Bytes (0%)<br>
Title : Forced<br>
Language : German<br>
Default : No<br>
Forced : Yes<br>
<br>
Text #6<br>
ID : 17<br>
Format : UTF-8<br>
Codec ID : S_TEXT/UTF8<br>
Codec ID/Info : UTF-8 Plain Text<br>
Duration : 1 h 38 min<br>
Bit rate : 74 b/s<br>
Frame rate : 0.272 FPS<br>
Count of elements : 1603<br>
Stream size : 53.6 KiB (0%)<br>
Language : German<br>
Default : No<br>
Forced : No<br>
<br>
Text #7<br>
ID : 18<br>
Format : UTF-8<br>
Codec ID : S_TEXT/UTF8<br>
Codec ID/Info : UTF-8 Plain Text<br>
Duration : 1 h 38 min<br>
Bit rate : 125 b/s<br>
Frame rate : 0.272 FPS<br>
Count of elements : 1602<br>
Stream size : 90.2 KiB (0%)<br>
Language : Greek<br>
Default : No<br>
Forced : No<br>
<br>
Text #8<br>
ID : 19<br>
Format : UTF-8<br>
Codec ID : S_TEXT/UTF8<br>
Codec ID/Info : UTF-8 Plain Text<br>
Duration : 1 h 37 min<br>
Bit rate : 0 b/s<br>
Frame rate : 0.002 FPS<br>
Count of elements : 14<br>
Stream size : 640 Bytes (0%)<br>
Title : Latin American (Forced)<br>
Language : Spanish (Latin America)<br>
Default : No<br>
Forced : Yes<br>
<br>
Text #9<br>
ID : 20<br>
Format : UTF-8<br>
Codec ID : S_TEXT/UTF8<br>
Codec ID/Info : UTF-8 Plain Text<br>
Duration : 1 h 38 min<br>
Bit rate : 69 b/s<br>
Frame rate : 0.228 FPS<br>
Count of elements : 1341<br>
Stream size : 50.2 KiB (0%)<br>
Title : Latin American<br>
Language : Spanish (Latin America)<br>
Default : No<br>
Forced : No<br>
<br>
Text #10<br>
ID : 21<br>
Format : UTF-8<br>
Codec ID : S_TEXT/UTF8<br>
Codec ID/Info : UTF-8 Plain Text<br>
Duration : 1 h 37 min<br>
Bit rate : 1 b/s<br>
Frame rate : 0.004 FPS<br>
Count of elements : 24<br>
Stream size : 762 Bytes (0%)<br>
Title : European (Forced)<br>
Language : Spanish (ES)<br>
Default : No<br>
Forced : Yes<br>
<br>
Text #11<br>
ID : 22<br>
Format : UTF-8<br>
Codec ID : S_TEXT/UTF8<br>
Codec ID/Info : UTF-8 Plain Text<br>
Duration : 1 h 38 min<br>
Bit rate : 70 b/s<br>
Frame rate : 0.274 FPS<br>
Count of elements : 1612<br>
Stream size : 51.0 KiB (0%)<br>
Language : Spanish (ES)<br>
Default : No<br>
Forced : No<br>
<br>
Text #12<br>
ID : 23<br>
Format : UTF-8<br>
Codec ID : S_TEXT/UTF8<br>
Codec ID/Info : UTF-8 Plain Text<br>
Duration : 1 h 38 min<br>
Bit rate : 71 b/s<br>
Frame rate : 0.266 FPS<br>
Count of elements : 1568<br>
Stream size : 51.2 KiB (0%)<br>
Language : Finnish<br>
Default : No<br>
Forced : No<br>
<br>
Text #13<br>
ID : 24<br>
Format : UTF-8<br>
Codec ID : S_TEXT/UTF8<br>
Codec ID/Info : UTF-8 Plain Text<br>
Duration : 1 h 35 min<br>
Bit rate : 0 b/s<br>
Frame rate : 0.002 FPS<br>
Count of elements : 10<br>
Stream size : 276 Bytes (0%)<br>
Title : Forced<br>
Language : French (FR)<br>
Default : No<br>
Forced : Yes<br>
<br>
Text #14<br>
ID : 25<br>
Format : UTF-8<br>
Codec ID : S_TEXT/UTF8<br>
Codec ID/Info : UTF-8 Plain Text<br>
Duration : 1 h 38 min<br>
Bit rate : 76 b/s<br>
Frame rate : 0.278 FPS<br>
Count of elements : 1639<br>
Stream size : 55.1 KiB (0%)<br>
Language : French (FR)<br>
Default : No<br>
Forced : No<br>
<br>
Text #15<br>
ID : 26<br>
Format : UTF-8<br>
Codec ID : S_TEXT/UTF8<br>
Codec ID/Info : UTF-8 Plain Text<br>
Duration : 1 h 38 min<br>
Bit rate : 77 b/s<br>
Frame rate : 0.265 FPS<br>
Count of elements : 1559<br>
Stream size : 55.8 KiB (0%)<br>
Language : Hungarian<br>
Default : No<br>
Forced : No<br>
<br>
Text #16<br>
ID : 27<br>
Format : UTF-8<br>
Codec ID : S_TEXT/UTF8<br>
Codec ID/Info : UTF-8 Plain Text<br>
Duration : 50 min 32 s<br>
Bit rate : 1 b/s<br>
Frame rate : 0.004 FPS<br>
Count of elements : 12<br>
Stream size : 464 Bytes (0%)<br>
Title : Forced<br>
Language : Italian<br>
Default : No<br>
Forced : Yes<br>
<br>
Text #17<br>
ID : 28<br>
Format : UTF-8<br>
Codec ID : S_TEXT/UTF8<br>
Codec ID/Info : UTF-8 Plain Text<br>
Duration : 1 h 38 min<br>
Bit rate : 69 b/s<br>
Frame rate : 0.265 FPS<br>
Count of elements : 1562<br>
Stream size : 50.2 KiB (0%)<br>
Language : Italian<br>
Default : No<br>
Forced : No<br>
<br>
Text #18<br>
ID : 29<br>
Format : UTF-8<br>
Codec ID : S_TEXT/UTF8<br>
Codec ID/Info : UTF-8 Plain Text<br>
Duration : 1 h 38 min<br>
Bit rate : 58 b/s<br>
Frame rate : 0.253 FPS<br>
Count of elements : 1492<br>
Stream size : 41.8 KiB (0%)<br>
Language : Japanese<br>
Default : No<br>
Forced : No<br>
<br>
Text #19<br>
ID : 30<br>
Format : UTF-8<br>
Codec ID : S_TEXT/UTF8<br>
Codec ID/Info : UTF-8 Plain Text<br>
Duration : 1 h 38 min<br>
Bit rate : 82 b/s<br>
Frame rate : 0.284 FPS<br>
Count of elements : 1673<br>
Stream size : 59.5 KiB (0%)<br>
Language : Korean<br>
Default : No<br>
Forced : No<br>
<br>
Text #20<br>
ID : 31<br>
Format : UTF-8<br>
Codec ID : S_TEXT/UTF8<br>
Codec ID/Info : UTF-8 Plain Text<br>
Duration : 1 h 38 min<br>
Bit rate : 65 b/s<br>
Frame rate : 0.217 FPS<br>
Count of elements : 1278<br>
Stream size : 47.2 KiB (0%)<br>
Language : Dutch<br>
Default : No<br>
Forced : No<br>
<br>
Text #21<br>
ID : 32<br>
Format : UTF-8<br>
Codec ID : S_TEXT/UTF8<br>
Codec ID/Info : UTF-8 Plain Text<br>
Duration : 1 h 38 min<br>
Bit rate : 70 b/s<br>
Frame rate : 0.234 FPS<br>
Count of elements : 1379<br>
Stream size : 51.1 KiB (0%)<br>
Language : Norwegian<br>
Default : No<br>
Forced : No<br>
<br>
Text #22<br>
ID : 33<br>
Format : UTF-8<br>
Codec ID : S_TEXT/UTF8<br>
Codec ID/Info : UTF-8 Plain Text<br>
Duration : 1 h 37 min<br>
Bit rate : 0 b/s<br>
Frame rate : 0.004 FPS<br>
Count of elements : 22<br>
Stream size : 561 Bytes (0%)<br>
Title : Forced<br>
Language : Polish<br>
Default : No<br>
Forced : Yes<br>
<br>
Text #23<br>
ID : 34<br>
Format : UTF-8<br>
Codec ID : S_TEXT/UTF8<br>
Codec ID/Info : UTF-8 Plain Text<br>
Duration : 1 h 38 min<br>
Bit rate : 66 b/s<br>
Frame rate : 0.273 FPS<br>
Count of elements : 1609<br>
Stream size : 48.1 KiB (0%)<br>
Language : Polish<br>
Default : No<br>
Forced : No<br>
<br>
Text #24<br>
ID : 35<br>
Format : UTF-8<br>
Codec ID : S_TEXT/UTF8<br>
Codec ID/Info : UTF-8 Plain Text<br>
Duration : 1 h 38 min<br>
Bit rate : 70 b/s<br>
Frame rate : 0.270 FPS<br>
Count of elements : 1590<br>
Stream size : 50.8 KiB (0%)<br>
Title : Brazilian<br>
Language : Portuguese (BR)<br>
Default : No<br>
Forced : No<br>
<br>
Text #25<br>
ID : 36<br>
Format : UTF-8<br>
Codec ID : S_TEXT/UTF8<br>
Codec ID/Info : UTF-8 Plain Text<br>
Duration : 1 h 37 min<br>
Bit rate : 0 b/s<br>
Frame rate : 0.004 FPS<br>
Count of elements : 23<br>
Stream size : 634 Bytes (0%)<br>
Title : Brazilian (Forced)<br>
Language : Portuguese (BR)<br>
Default : No<br>
Forced : Yes<br>
<br>
Text #26<br>
ID : 37<br>
Format : UTF-8<br>
Codec ID : S_TEXT/UTF8<br>
Codec ID/Info : UTF-8 Plain Text<br>
Duration : 1 h 38 min<br>
Bit rate : 76 b/s<br>
Frame rate : 0.261 FPS<br>
Count of elements : 1538<br>
Stream size : 55.0 KiB (0%)<br>
Title : European<br>
Language : Portuguese<br>
Default : No<br>
Forced : No<br>
<br>
Text #27<br>
ID : 38<br>
Format : UTF-8<br>
Codec ID : S_TEXT/UTF8<br>
Codec ID/Info : UTF-8 Plain Text<br>
Duration : 1 h 38 min<br>
Bit rate : 76 b/s<br>
Frame rate : 0.261 FPS<br>
Count of elements : 1538<br>
Stream size : 55.2 KiB (0%)<br>
Language : Portuguese (PT)<br>
Default : No<br>
Forced : No<br>
<br>
Text #28<br>
ID : 39<br>
Format : UTF-8<br>
Codec ID : S_TEXT/UTF8<br>
Codec ID/Info : UTF-8 Plain Text<br>
Duration : 1 h 38 min<br>
Bit rate : 73 b/s<br>
Frame rate : 0.263 FPS<br>
Count of elements : 1551<br>
Stream size : 52.5 KiB (0%)<br>
Language : Romanian<br>
Default : No<br>
Forced : No<br>
<br>
Text #29<br>
ID : 40<br>
Format : UTF-8<br>
Codec ID : S_TEXT/UTF8<br>
Codec ID/Info : UTF-8 Plain Text<br>
Duration : 1 h 38 min<br>
Bit rate : 78 b/s<br>
Frame rate : 0.280 FPS<br>
Count of elements : 1649<br>
Stream size : 56.2 KiB (0%)<br>
Language : Slovak<br>
Default : No<br>
Forced : No<br>
<br>
Text #30<br>
ID : 41<br>
Format : UTF-8<br>
Codec ID : S_TEXT/UTF8<br>
Codec ID/Info : UTF-8 Plain Text<br>
Duration : 1 h 38 min<br>
Bit rate : 74 b/s<br>
Frame rate : 0.276 FPS<br>
Count of elements : 1628<br>
Stream size : 53.4 KiB (0%)<br>
Language : Swedish<br>
Default : No<br>
Forced : No<br>
<br>
Text #31<br>
ID : 42<br>
Format : UTF-8<br>
Codec ID : S_TEXT/UTF8<br>
Codec ID/Info : UTF-8 Plain Text<br>
Duration : 1 h 35 min<br>
Bit rate : 1 b/s<br>
Frame rate : 0.004 FPS<br>
Count of elements : 23<br>
Stream size : 845 Bytes (0%)<br>
Title : Forced<br>
Language : Turkish<br>
Default : No<br>
Forced : Yes<br>
<br>
Text #32<br>
ID : 43<br>
Format : UTF-8<br>
Codec ID : S_TEXT/UTF8<br>
Codec ID/Info : UTF-8 Plain Text<br>
Duration : 1 h 38 min<br>
Bit rate : 83 b/s<br>
Frame rate : 0.284 FPS<br>
Count of elements : 1671<br>
Stream size : 59.8 KiB (0%)<br>
Language : Turkish<br>
Default : No<br>
Forced : No<br>
<br>
Text #33<br>
ID : 44<br>
Format : UTF-8<br>
Codec ID : S_TEXT/UTF8<br>
Codec ID/Info : UTF-8 Plain Text<br>
Duration : 1 h 38 min<br>
Bit rate : 68 b/s<br>
Frame rate : 0.284 FPS<br>
Count of elements : 1676<br>
Stream size : 49.5 KiB (0%)<br>
Title : Traditional<br>
Language : Chinese (Traditional)<br>
Default : No<br>
Forced : No<br>
<br>
Menu<br>
00:09:35.659 : en:Scene 1<br>
00:17:39.101 : en:Scene 2<br>
00:26:30.841 : en:Scene 3<br>
00:38:13.919 : en:Scene 4<br>
00:46:38.590 : en:Scene 5<br>
01:01:26.019 : en:Scene 6<br>
01:15:19.102 : en:Scene 7<br>
01:30:09.993 : en:Scene 8<br>
01:37:53.540 : en:Credits</div>
</div><br>
<b>Screenshots</b><br>
<img src="https://i.imgur.com/XqVgZIy.png" class="bbCodeImage LbImage" alt="[​IMG]" data-url="https://i.imgur.com/XqVgZIy.png" style=""><br>
<br>
<b>Download</b><br>
<div class="bbCodeBlock bbCodeVfcHH HiddenContent">
<div class="attribution type">Hidden Content:</div>
<blockquote>You must reply before you can see the hidden data contained here.</blockquote>
</div></div>
<div class="messageTextEndMarker">&nbsp;</div>
</blockquote>
</article>]]></description>
                <author><![CDATA[Samuel]]></author>
                </item>

                
                <item>
                <title><![CDATA[【Cinema Center】MOVIE - Knights Of The Zodiac (2023) 1080p BDRemux Latino-Inglés]]></title>
                <link><![CDATA[https://sharemania.us/threads/knights-of-the-zodiac-2023-1080p-bdremux-latino-ingl%C3%A9s.224629/]]></link>
                <description><![CDATA[<article>
<blockquote class="messageText SelectQuoteContainer ugc baseHtml">
<img src="http://images2.imgbox.com/20/f8/x52gQ8YW_o.png" class="bbCodeImage LbImage" alt="[​IMG]" data-url="http://images2.imgbox.com/20/f8/x52gQ8YW_o.png" style=""> <br>
<br>
Basada en el fenómeno internacional de animé, Los Caballeros del Zodiaco nos trae la saga de Saint Seiya a la gran pantalla por primera vez en formato live-action. Seiya (Mackenyu), un adolescente cabeza dura, pasa su tiempo luchando por dinero mientras busca a su hermana secuestrada. Cuando en una de sus peleas, sin darse cuenta, encuentra en sí mismo poderes místicos que nunca supo que...<br>
<br>
Vídeo Bluray H264 1920x1080 (High@L4.1, AVC)<br>
Formato de audio: DTS HD MA 5.1 (Español Latino) DTS HD MA 5.1 (Inglés)<br>
Formato de subtítulos: PGS<br>
Lista de subtítulos: Latino e inglés<br>
Lista de audio: Latino e inglés<br>
Fuente: Bluray<br>
<br>
Las extras aun no las subo tengo problemas con los limites de subida<br>
<br>
<img src="http://images2.imgbox.com/bd/f2/PJrUi0Lh_o.png" class="bbCodeImage LbImage" alt="[​IMG]" data-url="http://images2.imgbox.com/bd/f2/PJrUi0Lh_o.png" style=""> <img src="http://images2.imgbox.com/f4/bb/HjBap4nh_o.png" class="bbCodeImage LbImage" alt="[​IMG]" data-url="http://images2.imgbox.com/f4/bb/HjBap4nh_o.png" style=""><br>
<img src="http://images2.imgbox.com/0d/b8/1M6pAWW7_o.png" class="bbCodeImage LbImage" alt="[​IMG]" data-url="http://images2.imgbox.com/0d/b8/1M6pAWW7_o.png" style=""> <img src="http://images2.imgbox.com/70/ff/wgKVxd0j_o.png" class="bbCodeImage LbImage" alt="[​IMG]" data-url="http://images2.imgbox.com/70/ff/wgKVxd0j_o.png" style=""> <br>
<br>
<div class="bbCodeBlock bbCodeVfcHH HiddenContent">
<div class="attribution type">Hidden Content:</div>
<blockquote>You must reply before you can see the hidden data contained here.</blockquote>
</div>
<div class="messageTextEndMarker">&nbsp;</div>
</blockquote>
</article>]]></description>
                <author><![CDATA[Trevor]]></author>
                </item>

                </channel></rss>